<?xml version="1.0" standalone="no"?>
<!DOCTYPE svg PUBLIC "-//W3C//DTD SVG 20010904//EN"
 "http://www.w3.org/TR/2001/REC-SVG-20010904/DTD/svg10.dtd">
<svg version="1.0" xmlns="http://www.w3.org/2000/svg"
 width="1920.000000pt" height="1080.000000pt" viewBox="0 0 1920.000000 1080.000000"
 preserveAspectRatio="xMidYMid meet">

<g transform="translate(0.000000,1080.000000) scale(0.100000,-0.100000)"
fill="#000000" stroke="none">
<path d="M0 5400 l0 -5400 9600 0 9600 0 0 5400 0 5400 -9600 0 -9600 0 0
-5400z m9204 3889 c-3 -5 -10 -7 -15 -3 -5 3 -7 10 -3 15 3 5 10 7 15 3 5 -3
7 -10 3 -15z m-2174 -42 c-17 -18 -18 -18 -38 -1 l-20 17 20 17 c19 15 23 15
38 1 16 -15 16 -17 0 -34z m9231 -24 l-16 -21 -22 20 -22 21 21 17 c19 15 23
15 38 1 15 -15 15 -18 1 -38z m2720 34 c-13 -13 -26 -3 -16 12 3 6 11 8 17 5
6 -4 6 -10 -1 -17z m-17577 -18 c-3 -5 -10 -7 -15 -3 -5 3 -7 10 -3 15 3 5 10
7 15 3 5 -3 7 -10 3 -15z m3332 -293 l-21 -22 -26 21 -25 20 25 26 25 25 21
-24 21 -25 -20 -21z m7056 -38 l23 -23 -22 -22 -23 -22 -23 21 -23 21 20 22
c12 13 22 23 23 24 1 1 12 -9 25 -21z m-8088 -619 c-3 -5 -10 -7 -15 -3 -5 3
-7 10 -3 15 3 5 10 7 15 3 5 -3 7 -10 3 -15z m10005 -113 c-2 -2 -159 -72
-349 -154 -190 -83 -390 -171 -444 -196 -55 -26 -107 -45 -115 -43 -20 4 54
38 389 182 457 195 536 227 519 211z m-3652 -182 l-21 -22 -17 22 c-16 19 -16
23 -2 38 14 16 17 16 38 0 l22 -17 -20 -21z m7746 -451 c-19 -19 -19 -19 -35
2 -15 20 -15 23 0 39 15 15 18 15 35 -3 19 -18 19 -19 0 -38z m-10709 26 c-3
-5 -10 -7 -15 -3 -5 3 -7 10 -3 15 3 5 10 7 15 3 5 -3 7 -10 3 -15z m6080
-160 c-3 -5 -10 -7 -15 -3 -5 3 -7 10 -3 15 3 5 10 7 15 3 5 -3 7 -10 3 -15z
m997 -132 c-1 -12 -15 -9 -19 4 -3 6 1 10 8 8 6 -3 11 -8 11 -12z m-12283
-232 l-21 -22 -22 21 -21 21 20 23 20 22 22 -21 23 -22 -21 -22z m10272 -163
c0 -13 -12 -22 -22 -16 -10 6 -1 24 13 24 5 0 9 -4 9 -8z m-7330 -376 c0 -3
-4 -8 -10 -11 -5 -3 -10 -1 -10 4 0 6 5 11 10 11 6 0 10 -2 10 -4z m12651
-660 c-16 -19 -161 -90 -168 -82 -9 9 -3 13 79 57 77 41 110 50 89 25z m59
-256 c0 -5 -5 -10 -11 -10 -5 0 -7 5 -4 10 3 6 8 10 11 10 2 0 4 -4 4 -10z
m-7800 -1479 c0 -20 50 -23 349 -26 549 -6 1029 -24 1080 -40 15 -5 26 -4 31
5 6 10 17 11 53 2 25 -7 59 -9 76 -6 21 4 31 3 31 -5 0 -9 26 -10 100 -5 66 5
100 3 100 -3 0 -19 121 -34 275 -35 22 0 43 -4 46 -10 3 -5 25 -11 48 -13 23
-1 45 -5 48 -9 4 -3 82 -6 175 -6 137 0 168 -3 168 -14 0 -10 22 -16 80 -21
67 -6 80 -10 80 -25 0 -19 46 -35 93 -31 15 1 27 -3 27 -8 0 -6 9 -11 19 -11
11 0 23 -5 26 -10 4 -6 21 -8 41 -4 22 4 34 2 34 -5 0 -7 22 -11 59 -11 32 0
86 -3 120 -6 54 -6 61 -9 61 -29 0 -19 7 -23 58 -31 31 -4 94 -8 140 -8 45 0
82 -3 82 -8 0 -4 9 -8 20 -8 11 0 20 -5 20 -11 0 -27 31 -41 75 -34 29 4 45 3
45 -4 0 -6 9 -11 19 -11 10 0 21 -7 25 -15 3 -9 19 -15 41 -15 19 0 35 -4 35
-10 0 -5 18 -10 40 -10 28 0 40 -4 40 -14 0 -9 15 -17 40 -21 22 -4 40 -11 40
-16 0 -5 14 -9 30 -9 23 0 30 -5 30 -19 0 -18 19 -32 43 -30 7 0 3 4 -8 9 -14
6 -4 9 38 9 52 1 59 -1 69 -24 7 -17 19 -25 35 -25 33 0 117 -21 124 -32 3 -4
31 -9 62 -9 41 -1 57 -5 57 -15 0 -10 13 -14 43 -14 30 0 38 -3 27 -10 -8 -5
-12 -10 -10 -12 32 -21 57 -28 95 -28 25 0 45 -4 45 -10 0 -5 9 -10 20 -10 11
0 20 -4 20 -10 0 -5 18 -10 40 -10 22 0 40 -4 40 -8 0 -11 82 -29 145 -31 27
-1 52 -6 55 -10 6 -10 54 -15 138 -14 52 0 62 -2 62 -16 0 -14 17 -19 96 -29
54 -6 102 -16 107 -21 6 -6 27 -12 47 -12 26 -1 28 -3 10 -6 -52 -8 -217 -46
-275 -63 -33 -10 -122 -35 -197 -56 -76 -21 -138 -42 -138 -45 0 -10 38 -20
95 -26 28 -3 58 -9 67 -14 9 -5 37 -9 62 -9 26 0 46 -5 46 -10 0 -7 16 -9 40
-7 21 2 37 1 35 -3 -7 -11 -95 -31 -106 -25 -5 4 -9 2 -9 -3 0 -5 -24 -14 -53
-21 -51 -13 -56 -12 -172 28 -174 59 -242 66 -374 41 -173 -32 -269 -48 -401
-65 -69 -9 -152 -23 -185 -32 -37 -9 -173 -22 -350 -33 -282 -16 -293 -16
-380 2 -61 13 -116 18 -170 15 -97 -5 -199 11 -410 64 -185 47 -201 46 -365
-6 -116 -38 -206 -58 -349 -80 -109 -16 -87 -20 -516 96 -933 254 -1688 500
-2316 754 -145 59 -213 81 -232 78 -24 -5 -27 -3 -27 24 0 17 10 45 23 64 34
50 40 68 46 133 7 69 -13 63 209 67 78 1 142 5 142 9 0 4 73 8 162 9 99 2 168
7 176 13 8 7 60 10 138 9 72 -1 133 3 144 9 14 7 20 7 20 0 0 -11 103 -14 114
-2 6 6 75 28 99 31 4 1 7 -3 7 -8z m-1348 -151 c-26 -21 -58 -41 -72 -45 -36
-11 -86 -51 -107 -85 -14 -24 -24 -30 -50 -30 -39 0 -43 -16 -7 -32 19 -9 33
-9 56 0 28 10 29 10 15 -6 -9 -9 -19 -40 -22 -68 -5 -34 -13 -54 -26 -62 -11
-7 -86 -37 -167 -66 -128 -47 -163 -55 -267 -65 -66 -6 -162 -16 -213 -22 -51
-6 -111 -8 -132 -4 -43 7 -61 3 -475 -130 -225 -72 -457 -146 -532 -169 -20
-7 -23 -4 -23 23 0 16 -5 33 -10 36 -6 4 -8 11 -5 16 4 5 1 9 -5 9 -6 0 -8 5
-5 10 3 6 1 10 -5 10 -6 0 -9 4 -5 9 3 5 1 12 -5 16 -6 4 -8 10 -5 14 2 5 -1
16 -8 25 -10 14 -15 8 -35 -46 -25 -72 -62 -108 -56 -56 3 24 1 29 -12 24 -15
-6 -15 -4 -3 10 12 15 11 16 -11 9 -20 -6 -23 -5 -12 6 16 17 16 53 0 43 -7
-5 -9 -2 -5 9 3 8 0 21 -8 27 -8 6 -11 18 -8 26 3 8 0 14 -6 14 -6 0 -10 3 -9
8 0 4 -1 14 -5 22 -3 8 -8 22 -10 30 -3 8 -6 3 -6 -11 -1 -28 -24 -91 -32 -87
-2 2 -3 2 -3 0 1 -2 -4 -23 -12 -48 -7 -24 -10 -44 -6 -44 4 0 0 -5 -9 -10
-12 -7 -35 -2 -78 15 -102 42 -183 31 -377 -50 -111 -46 -130 -52 -119 -35 3
6 -1 10 -11 10 -13 0 -14 3 -4 15 11 14 7 19 -12 16 -4 0 -5 6 -2 14 4 8 1 15
-5 15 -6 0 -11 16 -11 36 0 20 -4 33 -10 29 -5 -3 -7 0 -4 8 3 8 32 20 67 27
34 7 66 17 71 21 6 5 21 9 34 9 14 0 34 10 45 23 13 15 21 18 24 10 7 -19 83
-17 83 2 0 11 11 15 40 15 28 0 40 4 40 14 0 16 21 26 56 26 13 0 24 5 24 10
0 6 13 10 29 10 41 0 131 22 131 32 0 4 18 8 40 8 22 0 40 4 40 9 0 5 18 12
40 16 22 4 40 12 40 19 0 7 17 11 47 11 36 0 47 4 51 17 3 13 11 16 28 12 15
-4 29 0 40 11 11 11 20 13 27 6 5 -5 16 -6 26 -1 9 4 42 14 75 20 48 10 60 10
67 -1 6 -10 9 -11 9 -1 0 6 7 12 15 12 8 0 15 5 15 10 0 6 9 10 20 10 11 0 20
4 20 10 0 6 24 8 60 5 50 -5 60 -3 60 10 0 9 4 14 9 10 5 -3 16 2 25 10 10 11
40 17 93 19 43 2 86 4 96 5 9 0 17 7 17 15 0 10 16 17 48 21 93 12 112 16 112
25 0 6 22 10 49 10 28 0 53 5 56 10 3 6 26 10 51 10 24 0 44 4 44 9 0 5 21 11
48 14 119 12 146 16 151 26 6 9 77 15 219 20 12 1 22 7 22 16 0 8 9 15 20 15
11 0 20 -4 20 -10 0 -5 9 -10 20 -10 11 0 20 5 20 10 0 6 18 10 40 10 22 0 40
4 40 9 0 4 62 9 137 9 77 1 139 6 143 11 3 6 36 12 73 13 37 2 67 8 67 13 0 6
4 4 9 -4 7 -11 -3 -24 -37 -51z m48 -197 c0 -13 -4 -23 -10 -23 -5 0 -10 17
-10 38 0 27 3 33 10 22 5 -8 10 -25 10 -37z m-50 -1 c0 -32 -5 -41 -25 -50
-28 -13 -65 -16 -65 -6 0 3 11 19 25 36 14 16 25 36 25 44 0 8 9 14 20 14 17
0 20 -7 20 -38z m-113 -47 c1 -19 -3 -35 -7 -35 -5 0 -16 -3 -26 -7 -15 -5
-16 -2 -10 23 15 59 42 71 43 19z m-2927 -407 c0 -6 -8 -17 -17 -24 -16 -12
-16 -15 -3 -24 11 -7 12 -10 2 -10 -9 0 -11 -7 -7 -20 5 -15 2 -20 -12 -20
-17 -1 -17 -2 2 -17 19 -14 17 -15 -29 -9 -60 7 -68 14 -38 33 21 15 21 16 5
30 -13 10 -14 16 -6 19 20 9 3 32 -20 28 -12 -3 -4 3 18 11 22 9 53 14 68 11
19 -4 26 -2 21 6 -4 7 -3 8 4 4 7 -4 12 -12 12 -18z m-133 -114 c-3 -3 -12 -4
-19 -1 -8 3 -5 6 6 6 11 1 17 -2 13 -5z m9996 -11 c-7 -2 -19 -2 -25 0 -7 3
-2 5 12 5 14 0 19 -2 13 -5z m-613 -167 c0 -3 -4 -8 -10 -11 -5 -3 -10 -1 -10
4 0 6 5 11 10 11 6 0 10 -2 10 -4z m-8910 -20 c0 -3 -4 -8 -10 -11 -5 -3 -10
-1 -10 4 0 6 5 11 10 11 6 0 10 -2 10 -4z m25 -26 c3 -6 -1 -7 -9 -4 -18 7
-21 14 -7 14 6 0 13 -4 16 -10z"/>
<path d="M13168 3723 c6 -2 18 -2 25 0 6 3 1 5 -13 5 -14 0 -19 -2 -12 -5z"/>
<path d="M5880 3469 c0 -5 5 -7 10 -4 6 3 10 8 10 11 0 2 -4 4 -10 4 -5 0 -10
-5 -10 -11z"/>
</g>
</svg>
